# xmcd
#
# Track frame offsets:
#	150
#	14448
#	29894
#	42481
#	56676
#	70845
#	83688
#	94204
#	107762
#	122500
#	136669
#	149905
#	164390
#	178615
#	192410
#	205615
#	220227
#	233406
#	246713
#	259905
#	274327
#	287751
#	299657
#	313036
#	326414
#
# Disc length: 4522 seconds
#
# Revision: 2
# Processed by: cddbd v1.5.2PL0 Copyright (c) Steve Scherf et al.
# Submitted via: audiograbber 1.83.01
#
DISCID=8d11a819
DTITLE=Various Artist - Sointu osa 7.
DYEAR=2004
DGENRE=Oldies
TTITLE0=Reino Armio - Pieni punainen mökkimme, slowfox
TTITLE1=Reino Armio - Tiina, slowfox
TTITLE2=Veikko Heinämies - Kesän viimeiset kukat, valssi
TTITLE3=Alpo Viika - Nokipojan jenkka
TTITLE4=A.Aimo - Napolitana, tango
TTITLE5=Eugen Malmstén - Sillanpään marssi
TTITLE6=A.Aimo - Kukkia Andeilta, tango
TTITLE7=Martta Kinnunen ja Erkki Eirto - Äänislinnan kirjeenkantaja, laulelma
TTITLE8=Viljo Immonen - Kukkia Salzburgista, valssi
TTITLE9=Teemu Grönberg - Kielon jäähyväiset, valssi
TTITLE10=Teppo Raikko - Revyytyttö, rumba
TTITLE11=Georg Malmstén - Tumma yö, tango
TTITLE12=Georg Malmstén - Ajomies ei kiirettä, foxtrot
TTITLE13=Olavi Virta - Linda, foxtrot
TTITLE14=Olavi Virta - Sua lemmin kuin järjetön mä oisin, foxtrot
TTITLE15=Georg Malmstén - Sinikan satu, jenkka
TTITLE16=Usko Kantola - Muistathan kai, valssi
TTITLE17=Olavi Virta - Singoalla, valssiromanssi
TTITLE18=Pentti Viherluoto - Kolme paria puukenkiä, valssi
TTITLE19=Esko Vettenranta - Sävelmä sinulle, beguine
TTITLE20=Kipparikvartetti - Olipa se pölinätä pöntössä, foxtrot
TTITLE21=Metro-tytöt - Talkoopolkka
TTITLE22=Henry Theel - Kun ulpukka kukkii, valssi
TTITLE23=Henry Theel - Janne parka, foxtrot
TTITLE24=Reijo Kallio - Suklaasydän, foxtrot
EXTD=
EXTT0=
EXTT1=
EXTT2=
EXTT3=
EXTT4=
EXTT5=
EXTT6=
EXTT7=
EXTT8=
EXTT9=
EXTT10=
EXTT11=
EXTT12=
EXTT13=
EXTT14=
EXTT15=
EXTT16=
EXTT17=
EXTT18=
EXTT19=
EXTT20=
EXTT21=
EXTT22=
EXTT23=
EXTT24=
PLAYORDER=
